<?xml version="1.0" encoding="utf-8"?>
<svg version="1.1" xmlns:xlink="http://www.w3.org/1999/xlink" width="10px" height="10px" xmlns="http://www.w3.org/2000/svg">
  <g transform="matrix(1 0 0 1 -615 -387 )">
    <path d="M 9.762516046213094 4.673913043478261  C 9.920838682071034 4.850543478260869  10.000000000000002 5.056612318840578  10 5.292119565217392  C 10.000000000000002 5.523097826086957  9.920838682071034 5.726902173913043  9.762516046213094 5.903532608695652  L 9.281129653401797 6.413043478260869  C 9.118528027385537 6.585144927536231  8.923833975181859 6.671195652173914  8.697047496790757 6.671195652173914  C 8.465982028241335 6.671195652173914  8.273427471116817 6.585144927536231  8.119383825417202 6.413043478260869  L 6.2323491655969185 4.422554347826086  L 6.2323491655969185 9.20516304347826  C 6.2323491655969185 9.440670289855074  6.152118100128369 9.632019927536232  5.991655969191271 9.77921195652174  C 5.831193838254172 9.926403985507248  5.6375695335900735 10  5.410783055198973 10  L 4.589216944801027 10  C 4.362430466409927 10  4.168806161745827 9.926403985507248  4.008344030808729 9.77921195652174  C 3.84788189987163 9.632019927536232  3.7676508344030806 9.440670289855074  3.7676508344030806 9.20516304347826  L 3.7676508344030806 4.422554347826086  L 1.8806161745827985 6.413043478260869  C 1.7265725288831835 6.585144927536231  1.534017971758665 6.671195652173914  1.3029525032092426 6.671195652173914  C 1.0718870346598202 6.671195652173914  0.8793324775353016 6.585144927536231  0.7252888318356867 6.413043478260869  L 0.24390243902439024 5.903532608695652  C 0.08130081300813011 5.731431159420289  0 5.527626811594203  0 5.292119565217392  C 0 5.052083333333332  0.08130081300813011 4.846014492753623  0.24390243902439024 4.673913043478261  L 4.422336328626445 0.25135869565217406  C 4.572100984167737 0.08378623188405765  4.764655541292256 0  5 0  C 5.231065468549422 0  5.425759520753103 0.08378623188405765  5.58408215661104 0.25135869565217406  L 9.762516046213094 4.673913043478261  Z " fill-rule="nonzero" fill="#f679a7" stroke="none" transform="matrix(1 0 0 1 615 387 )" />
  </g>
</svg>