<?xml version="1.0" encoding="utf-8"?>
<svg version="1.1" xmlns:xlink="http://www.w3.org/1999/xlink" width="12px" height="13px" xmlns="http://www.w3.org/2000/svg">
  <g transform="matrix(1 0 0 1 -711 -425 )">
    <path d="M 11.717171717171716 9.717171717171716  C 11.905723905723907 9.921436588103253  12 10.169472502805835  12 10.461279461279462  C 12 10.753086419753089  11.905723905723907 11.001122334455667  11.717171717171716 11.205387205387204  L 10.343434343434343 12.693602693602694  C 10.154882154882156 12.897867564534232  9.925925925925926 13  9.656565656565657 13  C 9.387205387205388 13  9.15824915824916 12.897867564534232  8.96969696969697 12.693602693602694  L 6 9.476430976430978  L 3.0303030303030303 12.693602693602694  C 2.841750841750842 12.897867564534232  2.612794612794613 13  2.3434343434343434 13  C 2.0740740740740744 13  1.8451178451178454 12.897867564534232  1.6565656565656566 12.693602693602694  L 0.2828282828282828 11.205387205387204  C 0.09427609427609437 11.001122334455667  0 10.753086419753089  0 10.461279461279462  C 0 10.169472502805835  0.09427609427609437 9.921436588103253  0.2828282828282828 9.717171717171716  L 3.2525252525252526 6.5  L 0.2828282828282828 3.2828282828282824  C 0.09427609427609437 3.078563411896744  0 2.830527497194164  0 2.538720538720539  C 0 2.2469135802469133  0.09427609427609437 1.9988776655443303  0.2828282828282828 1.794612794612795  L 1.6565656565656566 0.30639730639730645  C 1.8451178451178454 0.10213243546576833  2.0740740740740744 0  2.3434343434343434 0  C 2.612794612794613 0  2.841750841750842 0.10213243546576833  3.0303030303030303 0.30639730639730645  L 6 3.5235690235690242  L 8.96969696969697 0.30639730639730645  C 9.15824915824916 0.10213243546576833  9.387205387205388 0  9.656565656565657 0  C 9.925925925925926 0  10.154882154882156 0.10213243546576833  10.343434343434343 0.30639730639730645  L 11.717171717171716 1.794612794612795  C 11.905723905723907 1.9988776655443303  12 2.2469135802469133  12 2.538720538720539  C 12 2.830527497194164  11.905723905723907 3.078563411896744  11.717171717171716 3.2828282828282824  L 8.747474747474747 6.5  L 11.717171717171716 9.717171717171716  Z " fill-rule="nonzero" fill="#c4c7ce" stroke="none" transform="matrix(1 0 0 1 711 425 )" />
  </g>
</svg>