<?xml version="1.0" encoding="utf-8"?>
<svg version="1.1" xmlns:xlink="http://www.w3.org/1999/xlink" width="22px" height="22px" xmlns="http://www.w3.org/2000/svg">
  <g transform="matrix(1 0 0 1 -592 -278 )">
    <path d="M 8.668229166666666 10.001802884615385  C 9.313715277777778 9.257011217948717  10.090972222222224 8.884615384615383  11 8.884615384615385  C 11.90902777777778 8.884615384615383  12.686284722222224 9.257011217948717  13.331770833333334 10.001802884615385  C 13.977256944444447 10.746594551282051  14.3 11.643429487179485  14.3 12.692307692307692  C 14.3 13.741185897435896  13.977256944444447 14.638020833333332  13.331770833333334 15.3828125  C 12.686284722222224 16.127604166666664  11.90902777777778 16.5  11 16.5  C 10.090972222222224 16.5  9.313715277777778 16.127604166666664  8.668229166666666 15.3828125  C 8.022743055555557 14.638020833333332  7.699999999999999 13.741185897435896  7.699999999999999 12.692307692307692  C 7.699999999999999 11.643429487179485  8.022743055555557 10.746594551282051  8.668229166666666 10.001802884615385  Z M 16.5 3.384615384615385  L 19.066666666666666 3.384615384615385  C 19.87638888888889 3.384615384615385  20.567708333333336 3.7151442307692304  21.140625 4.376201923076924  C 21.713541666666668 5.037259615384615  22.000000000000004 5.834935897435896  22 6.76923076923077  L 22 18.615384615384617  C 22.000000000000004 19.54967948717949  21.713541666666668 20.34735576923077  21.140625 21.00841346153846  C 20.567708333333336 21.669471153846153  19.87638888888889 22  19.066666666666666 22  L 2.933333333333333 22  C 2.1236111111111113 22  1.4322916666666667 21.669471153846153  0.859375 21.00841346153846  C 0.28645833333333337 20.34735576923077  0 19.54967948717949  0 18.615384615384617  L 0 6.76923076923077  C 0 5.834935897435896  0.28645833333333337 5.037259615384615  0.859375 4.376201923076924  C 1.4322916666666667 3.7151442307692304  2.1236111111111113 3.384615384615385  2.933333333333333 3.384615384615385  L 5.5 3.384615384615385  L 6.084375 1.5865384615384608  C 6.2295138888888895 1.1546474358974355  6.494965277777778 0.7822516025641013  6.880729166666667 0.4693509615384608  C 7.266493055555557 0.1564503205128227  7.661805555555556 0  8.066666666666666 0  L 13.933333333333334 0  C 14.338194444444445 0  14.733506944444446 0.1564503205128227  15.119270833333333 0.4693509615384608  C 15.505034722222224 0.7822516025641013  15.770486111111111 1.1546474358974355  15.915624999999999 1.5865384615384608  L 16.5 3.384615384615385  Z M 7.3734375 16.876802884615383  C 8.377951388888889 18.035857371794872  9.586805555555557 18.615384615384617  11 18.615384615384617  C 12.413194444444446 18.615384615384617  13.622048611111111 18.035857371794872  14.626562499999999 16.876802884615383  C 15.63107638888889 15.717748397435896  16.133333333333333 14.322916666666666  16.133333333333333 12.692307692307692  C 16.133333333333333 11.061698717948719  15.63107638888889 9.666866987179485  14.626562499999999 8.5078125  C 13.622048611111111 7.348758012820511  12.413194444444446 6.76923076923077  11 6.76923076923077  C 9.586805555555557 6.76923076923077  8.377951388888889 7.348758012820511  7.3734375 8.5078125  C 6.368923611111112 9.666866987179485  5.866666666666666 11.061698717948719  5.866666666666666 12.692307692307692  C 5.866666666666666 14.322916666666666  6.368923611111112 15.717748397435896  7.3734375 16.876802884615383  Z " fill-rule="nonzero" fill="#4e6ef2" stroke="none" transform="matrix(1 0 0 1 592 278 )" />
  </g>
</svg>